<?xml version="1.0" standalone="no"?>
<!DOCTYPE svg PUBLIC "-//W3C//DTD SVG 20010904//EN"
 "http://www.w3.org/TR/2001/REC-SVG-20010904/DTD/svg10.dtd">
<svg version="1.0" xmlns="http://www.w3.org/2000/svg"
 width="768.000000pt" height="768.000000pt" viewBox="0 0 768.000000 768.000000"
 preserveAspectRatio="xMidYMid meet">
<metadata>
Created by potrace 1.14, written by Peter Selinger 2001-2017
</metadata>
<g transform="translate(0.000000,768.000000) scale(0.100000,-0.100000)"
fill="#000000" stroke="none">
<path d="M3159 7676 c-2 -2 -56 -6 -119 -10 -63 -3 -126 -8 -140 -10 -14 -3
-57 -7 -95 -10 -39 -4 -81 -8 -95 -11 -14 -2 -45 -6 -70 -9 -25 -3 -56 -8 -70
-11 -14 -3 -41 -8 -60 -11 -39 -6 -174 -33 -205 -40 -11 -3 -31 -7 -45 -10
-47 -10 -204 -55 -300 -86 -494 -161 -938 -448 -1225 -793 -28 -33 -52 -62
-55 -65 -15 -15 -73 -94 -120 -164 -90 -135 -159 -261 -243 -446 -108 -237
-224 -665 -263 -965 -3 -22 -7 -54 -9 -71 -2 -17 -7 -57 -10 -90 -4 -32 -8
-69 -10 -82 -28 -169 -29 -1723 -1 -1892 2 -14 7 -59 11 -100 3 -41 8 -82 10
-90 2 -8 6 -37 10 -65 3 -27 8 -57 10 -65 2 -8 6 -33 9 -55 2 -22 10 -62 16
-90 6 -27 13 -61 15 -75 1 -14 8 -45 15 -70 7 -25 13 -52 15 -60 2 -8 8 -35
14 -60 7 -25 14 -54 16 -64 10 -43 80 -247 117 -340 47 -118 140 -311 184
-381 17 -27 51 -81 75 -120 122 -195 362 -461 524 -580 22 -17 45 -35 50 -41
12 -13 258 -175 297 -195 141 -73 271 -134 354 -167 99 -40 335 -118 378 -126
12 -2 58 -13 102 -24 219 -57 435 -90 784 -119 208 -18 1628 -8 1750 11 14 3
57 7 95 10 39 4 81 8 95 10 14 3 43 7 65 10 40 6 71 11 135 22 19 4 44 8 55
10 33 4 180 36 250 54 22 6 51 13 65 16 35 7 333 105 345 114 6 4 33 15 60 25
79 29 229 102 334 162 296 170 543 385 754 655 62 79 196 294 254 409 38 74
69 136 70 139 3 8 18 48 56 145 60 156 141 428 163 555 3 14 13 72 24 130 22
122 25 142 40 270 6 52 13 113 15 135 16 126 20 329 20 945 0 608 -4 820 -19
940 -3 19 -7 62 -10 95 -3 33 -8 69 -10 81 -2 12 -7 45 -11 75 -3 30 -8 65
-10 79 -3 14 -7 41 -10 60 -4 19 -11 55 -16 80 -6 25 -12 56 -14 70 -1 14 -8
45 -15 70 -7 25 -13 52 -15 60 -2 8 -8 35 -14 60 -7 25 -14 54 -16 64 -10 43
-80 247 -117 340 -47 118 -140 311 -184 381 -17 28 -51 82 -75 120 -122 195
-362 461 -524 580 -22 17 -44 35 -50 41 -12 13 -258 175 -297 195 -141 73
-271 134 -354 167 -99 40 -335 118 -378 126 -12 2 -58 13 -102 24 -193 50
-441 90 -659 107 -44 4 -96 9 -115 12 -37 6 -1495 15 -1501 9z"/>
</g>
</svg>
